<svg id="Camada_1" data-name="Camada 1" xmlns="http://www.w3.org/2000/svg" viewBox="0 0 800.16 375.81"><defs><style>.cls-1{font-size:107.42px;fill:#0e0e1e;font-family:Ebrima;}.cls-2{fill:#62bee7;}.cls-3{fill:#0a0a14;}.cls-4{fill:#ccc;}</style></defs><text class="cls-1" transform="translate(0 341.5) scale(1.01 1)">GetBookings<tspan class="cls-2" x="602.74" y="0">WP</tspan><tspan class="cls-3" x="763.24" y="0"> </tspan></text><path class="cls-2" d="M503.16,219.21c-66.06,4-147.19,3.43-213.59,3.59-17.87.78-34.37-11.64-34.87-30.23-.12-42.55.05-113.12,0-156.32V31l.15-2.88a30.25,30.25,0,0,1,4.79-13.51A32.71,32.71,0,0,1,283.37.28c9.66-.54,27-.08,36.78-.22,49-.25,118.37.24,166.66,3-56.46,3-130.54,3.38-187.5,3-4.63.1-13.18-.34-17.61.53-10,1.91-18.64,9.8-20.55,19.86a30.12,30.12,0,0,0-.47,4.59v88.55c.09,19.11-.08,54,0,72.84.43,15.35,14.29,25.13,29,24.37,66.45-.29,147.34-1.11,213.5,2.41Z"/><rect class="cls-2" x="275.75" y="31.38" width="41.55" height="37.6" rx="2"/><rect class="cls-4" x="274.96" y="91.15" width="41.55" height="37.6" rx="2"/><rect class="cls-4" x="274.96" y="150.05" width="41.55" height="37.6" rx="2"/><rect class="cls-4" x="362.78" y="32.24" width="41.55" height="37.6" rx="2"/><rect class="cls-4" x="362.78" y="91.15" width="41.55" height="37.6" rx="2"/><rect class="cls-4" x="362.78" y="150.05" width="41.55" height="37.6" rx="2"/><rect class="cls-4" x="448.17" y="36.09" width="41.55" height="37.6" rx="2"/><rect class="cls-4" x="448.17" y="94.99" width="41.55" height="37.6" rx="2"/><rect class="cls-2" x="448.17" y="153.9" width="41.55" height="37.6" rx="2"/><path class="cls-2" d="M381.36,129.68c1.59,1.42,5.14.95,5.52-1.28,2.38-13.86,14.27-25.56,23.27-36.58,2.5-3-3.24-5.95-5.7-2.93-8.23,10.06-18.6,20.66-22.65,32.88a155.57,155.57,0,0,0-14.49-12c-3.29-2.32-8,1.77-4.67,4.11C369.41,118.69,375.26,124.26,381.36,129.68Z"/></svg>